<svg width="188" height="105" viewBox="0 0 188 105" fill="none" xmlns="http://www.w3.org/2000/svg">
<path d="M0.04 52.6C0.04 82.408 22.216 104.44 52.312 104.44C67.864 104.44 82.84 96.808 91.48 85.72L81.256 76.504C75.64 83.272 65.848 90.76 52.312 90.76C30.856 90.76 14.44 75.352 14.44 52.6C14.44 30.856 30.424 14.44 51.016 14.44C61.816 14.44 72.328 19.336 78.232 25.816L87.88 16.312C79.096 6.664 65.416 0.759995 51.016 0.759995C21.928 0.759995 0.04 23.512 0.04 52.6ZM113.574 103L141.798 59.944L170.166 103H187.158L151.158 47.848L181.398 2.19999H163.686L141.798 35.752L120.054 2.19999H102.342L132.438 47.848L96.5819 103H113.574Z" fill="white"/>
</svg>
