<svg width="201" height="174" viewBox="0 0 201 174" fill="none" xmlns="http://www.w3.org/2000/svg">
<path d="M164.186 1.72266H186.148C193.483 1.72266 199.43 15.1191 199.43 31.6445V32.8414H164.186V1.72266Z" fill="#F4F9FF" stroke="#92A4BA" stroke-width="2"/>
<path fill-rule="evenodd" clip-rule="evenodd" d="M70.8792 1.72266C55.6723 1.72266 43.3445 15.1191 43.3445 31.6445V172.277H143.57C158.777 172.277 171.104 158.881 171.104 142.355V31.3452V31.0461L171.106 31.0446C171.183 14.823 177.439 1.72266 185.148 1.72266C185.239 1.72266 185.33 1.72448 185.421 1.72813L185.422 1.72266H185.148H70.8792Z" fill="#F4F9FF"/>
<path d="M185.148 1.72266C177.439 1.72266 171.183 14.823 171.106 31.0446L171.104 31.0461V31.3452V142.355C171.104 158.881 158.777 172.277 143.57 172.277H43.3445V31.6445C43.3445 15.1191 55.6723 1.72266 70.8792 1.72266H185.148ZM185.148 1.72266C185.239 1.72266 185.33 1.72448 185.421 1.72813L185.422 1.72266H185.148Z" stroke="#92A4BA" stroke-width="2"/>
<path fill-rule="evenodd" clip-rule="evenodd" d="M144.199 172.263C143.925 172.272 143.65 172.277 143.373 172.277C128.41 172.277 116.263 159.175 116.115 142.953H1.57031C1.57031 159.148 13.6514 172.277 28.5542 172.277H143.373H144.199V172.263Z" fill="#F4F9FF"/>
<path d="M143.373 172.277C143.65 172.277 143.925 172.272 144.199 172.263V172.277H143.373ZM143.373 172.277C128.41 172.277 116.263 159.175 116.115 142.953H1.57031C1.57031 159.148 13.6514 172.277 28.5542 172.277H143.373Z" stroke="#92A4BA" stroke-width="2"/>
<path d="M67.6615 50.2875V38.1616C67.6615 36.2581 69.5378 35.1302 70.7691 36.3287L77.219 42.3915C78.2159 43.308 78.2159 45.141 77.219 46.0576L70.7691 52.1205C69.4791 53.319 67.6615 52.191 67.6615 50.2875Z" stroke="#0072FF" stroke-width="2" stroke-miterlimit="10"/>
<path d="M78.1138 79.8545C78.1138 83.5191 75.3723 86.5212 71.9553 86.5212C68.5382 86.5212 65.7967 83.5191 65.7967 79.8545C65.7967 76.1896 68.5382 73.1875 71.9553 73.1875C75.3723 73.1875 78.1138 76.1896 78.1138 79.8545Z" stroke="#0072FF" stroke-width="2"/>
<path d="M78.1139 106.953H65.7967V120.287H78.1139V106.953Z" stroke="#0072FF" stroke-width="2"/>
<path d="M91.7069 44.2268H146.668" stroke="#0072FF" stroke-width="2"/>
<path d="M91.7069 80.7886H146.668" stroke="#0072FF" stroke-width="2"/>
<path d="M91.7069 114.551H146.668" stroke="#0072FF" stroke-width="2"/>
</svg>
