<svg width="1260" height="356" viewBox="0 0 1260 356" fill="none" xmlns="http://www.w3.org/2000/svg">
<rect width="1260" height="356" fill="#101F34"/>
<mask id="mask0" mask-type="alpha" maskUnits="userSpaceOnUse" x="0" y="0" width="1260" height="356">
<rect width="1260" height="356" fill="#101F34"/>
</mask>
<g mask="url(#mask0)">
<path d="M290 -44L579.942 123.131L579.481 407.736L290 241.065V-44Z" stroke="white" stroke-width="0.5" stroke-miterlimit="10" stroke-linejoin="round"/>
<path d="M319.648 18V222.394L519.5 338.174" stroke="white"/>
<path d="M309.479 216.5L319.521 222.318" stroke="white" stroke-width="0.5"/>
<path d="M309.479 180.199L319.521 186.017" stroke="white" stroke-width="0.5"/>
<path d="M309.479 143.898L319.521 149.716" stroke="white" stroke-width="0.5"/>
<path d="M309.479 107.602L319.521 113.419" stroke="white" stroke-width="0.5"/>
<path d="M309.479 71.3008L319.521 77.1184" stroke="white" stroke-width="0.5"/>
<path d="M309.479 35L319.521 40.8176" stroke="white" stroke-width="0.5"/>
<path d="M326 190L405 181L440.376 212.338L495.424 198.067L540 258" stroke="white" stroke-width="2"/>
<path d="M330 156L398 211L424 251L488 256L540 278" stroke="#00C3FF" stroke-width="2"/>
<path d="M329.5 90.5L363 140L398 120L423 149L472 154L511 186L523 218L549 222" stroke="#0072FF" stroke-width="2"/>
<path d="M383.681 266.525V59.3438" stroke="white" stroke-width="0.5"/>
<path d="M445.339 302.626V95.4453" stroke="white" stroke-width="0.5"/>
<path d="M506.997 338.736V131.555" stroke="white" stroke-width="0.5"/>
<path d="M557.077 -27.4727L807.908 117.114L807.509 363.328L557.077 219.139V-27.4727Z" stroke="white" stroke-width="0.5" stroke-miterlimit="10" stroke-linejoin="round"/>
<path d="M671.486 233.489V88.8594" stroke="#0085FF" stroke-width="0.5"/>
<path d="M707.343 251.413L707.343 186.598" stroke="#0085FF" stroke-width="0.5"/>
<path d="M617.699 100.3L617.699 35.4844" stroke="#0085FF" stroke-width="0.5"/>
<path d="M599.771 141.281L599.771 76.4648" stroke="#0085FF" stroke-width="0.5"/>
<path d="M743.201 259.101L743.201 194.285" stroke="#0085FF" stroke-width="0.5"/>
<path d="M761.129 233.491L761.129 168.676" stroke="#0085FF" stroke-width="0.5"/>
<path d="M653.557 156.656L653.557 91.8398" stroke="#0085FF" stroke-width="0.5"/>
<path d="M689.415 278.216V133.586" stroke="#0085FF" stroke-width="0.5"/>
<path d="M635.628 201.38V56.75" stroke="#0085FF" stroke-width="0.5"/>
<path d="M725.272 257.722V125.898" stroke="#0085FF" stroke-width="0.5"/>
<path d="M671.486 203.489V148.859" stroke="#0085FF" stroke-width="2"/>
<path d="M707.343 231.413L707.343 216.598" stroke="#0085FF" stroke-width="2"/>
<path d="M617.699 100.3L617.699 75.4844" stroke="#0085FF" stroke-width="2"/>
<path d="M599.771 121.281L599.771 86.4648" stroke="#0085FF" stroke-width="2"/>
<path d="M743.201 239.101L743.201 204.285" stroke="#0085FF" stroke-width="2"/>
<path d="M761.129 223.491L761.129 198.676" stroke="#0085FF" stroke-width="2"/>
<path d="M653.557 146.656L653.557 111.84" stroke="#0085FF" stroke-width="2"/>
<path d="M689.415 228.216V173.586" stroke="#0085FF" stroke-width="2"/>
<path d="M635.628 151.38V86.75" stroke="#0085FF" stroke-width="2"/>
<path d="M725.272 237.722V185.898" stroke="#0085FF" stroke-width="2"/>
<path d="M36.7808 306.056V277.546L60.4535 263.855L84.2523 277.797V306.308L60.5795 319.998L36.7808 306.056Z" fill="#101F34" stroke="white" stroke-miterlimit="10" stroke-linejoin="round"/>
<path d="M60.5791 320.002V291.491L84.2519 277.801" stroke="white" stroke-width="0.5" stroke-miterlimit="10" stroke-linejoin="round"/>
<path d="M60.5795 291.488L36.7808 277.547" stroke="white" stroke-width="0.5" stroke-miterlimit="10" stroke-linejoin="round"/>
<path d="M227.311 75.0274V50.5898L247.601 38.8555L268 50.8051V75.2427L247.709 86.977L227.311 75.0274Z" fill="#101F34" stroke="white" stroke-miterlimit="10" stroke-linejoin="round"/>
<path d="M247.709 86.9805V62.5429L268 50.8086" stroke="white" stroke-width="0.5" stroke-miterlimit="10" stroke-linejoin="round"/>
<path d="M247.709 62.5395L227.311 50.5898" stroke="white" stroke-width="0.5" stroke-miterlimit="10" stroke-linejoin="round"/>
<path d="M782.311 52.6923V27.9031L802.893 16L823.585 28.1215V52.9107L803.003 64.8138L782.311 52.6923Z" fill="#101F34" stroke="white" stroke-miterlimit="10" stroke-linejoin="round"/>
<path d="M803.002 64.8173V40.0281L823.585 28.125" stroke="white" stroke-width="0.5" stroke-miterlimit="10" stroke-linejoin="round"/>
<path d="M803.003 40.0239L782.311 27.9023" stroke="white" stroke-width="0.5" stroke-miterlimit="10" stroke-linejoin="round"/>
<path d="M838.311 282.14V262.355L854.738 252.855L871.252 262.53V282.314L854.825 291.814L838.311 282.14Z" fill="#101F34" stroke="white" stroke-miterlimit="10" stroke-linejoin="round"/>
<path d="M854.825 291.816V272.031L871.252 262.531" stroke="white" stroke-width="0.5" stroke-miterlimit="10" stroke-linejoin="round"/>
<path d="M854.825 272.03L838.311 262.355" stroke="white" stroke-width="0.5" stroke-miterlimit="10" stroke-linejoin="round"/>
<path d="M1159.31 319.14V299.355L1175.74 289.855L1192.25 299.53V319.314L1175.83 328.814L1159.31 319.14Z" fill="#101F34" stroke="white" stroke-miterlimit="10" stroke-linejoin="round"/>
<path d="M1175.83 328.816V309.031L1192.25 299.531" stroke="white" stroke-width="0.5" stroke-miterlimit="10" stroke-linejoin="round"/>
<path d="M1175.83 309.03L1159.31 299.355" stroke="white" stroke-width="0.5" stroke-miterlimit="10" stroke-linejoin="round"/>
<path d="M148.718 92.8371V58.7591L177.028 42.4609L205.427 59.1077V93.1857L177.116 109.484L148.718 92.8371Z" fill="#101F34" stroke="white" stroke-miterlimit="10" stroke-linejoin="round"/>
<path d="M177.116 109.486V75.4076L205.427 59.1094" stroke="white" stroke-width="0.5" stroke-miterlimit="10" stroke-linejoin="round"/>
<path d="M177.117 75.4046L148.719 58.7578" stroke="white" stroke-width="0.5" stroke-miterlimit="10" stroke-linejoin="round"/>
<path d="M855.718 84.4378V43.4054L889.806 23.7812L923.999 43.8252V84.8575L889.911 104.482L855.718 84.4378Z" fill="#101F34" stroke="white" stroke-miterlimit="10" stroke-linejoin="round"/>
<path fill-rule="evenodd" clip-rule="evenodd" d="M865.239 72.2238C865.239 71.6682 865.095 71.1519 864.809 70.6751C864.522 70.1982 864.007 69.5614 863.262 68.7648C862.517 67.9681 861.927 67.2736 861.492 66.6811C860.308 65.0635 859.716 63.5127 859.716 62.0288C859.716 61.2574 859.875 60.6688 860.192 60.263C860.51 59.8571 860.966 59.6704 861.56 59.7028C862.155 59.7352 862.822 59.9831 863.563 60.4467C864.307 60.9132 864.971 61.5135 865.554 62.2477C866.136 62.9819 866.589 63.7866 866.911 64.6618C867.234 65.537 867.395 66.4027 867.395 67.2591L865.246 65.9134C865.246 65.2597 865.095 64.6572 864.795 64.106C864.494 63.5548 864.071 63.1087 863.527 62.7678C863.001 62.4389 862.593 62.3352 862.302 62.4567C862.01 62.5783 861.865 62.8875 861.865 63.3843C861.865 63.8485 862.036 64.3443 862.377 64.8719C862.718 65.3995 863.221 66.0084 863.885 66.6987C865.107 67.9676 865.998 69.1496 866.557 70.2448C867.115 71.3399 867.395 72.4431 867.395 73.5544C867.395 74.79 867.053 75.5453 866.37 75.8204C865.688 76.0955 864.768 75.8712 863.613 75.1475C862.81 74.6451 862.08 73.9866 861.421 73.1718C860.762 72.3571 860.259 71.4916 859.913 70.5753C859.567 69.659 859.394 68.74 859.394 67.8183L861.55 69.1685C861.55 70.7439 862.237 71.9623 863.613 72.8235C864.124 73.1435 864.522 73.2511 864.809 73.1461C865.095 73.0412 865.239 72.7338 865.239 72.2238ZM872.115 74.5494L870.998 75.497V79.5762L868.849 78.2305V63.9532L870.998 65.2989V71.7708L871.943 70.588L874.601 67.5552L877.244 69.2105L873.541 73.2357L877.352 83.555L874.794 81.9536L872.115 74.5494ZM881.757 78.4691L883.927 73.3956L886.277 74.8669L882.853 81.8225V87L880.668 85.6319V80.4544L877.244 69.2105L879.601 70.6863L881.757 78.4691Z" fill="#0084FF"/>
<path d="M889.912 104.485V63.4523L924 43.8281" stroke="white" stroke-width="0.5" stroke-miterlimit="10" stroke-linejoin="round"/>
<path d="M889.912 63.4463L855.719 43.4023" stroke="white" stroke-width="0.5" stroke-miterlimit="10" stroke-linejoin="round"/>
<path d="M229.718 307.837V273.759L258.028 257.461L286.427 274.108V308.186L258.116 324.484L229.718 307.837Z" fill="#101F34" stroke="white" stroke-miterlimit="10" stroke-linejoin="round"/>
<path d="M258.116 324.486V290.408L286.427 274.109" stroke="white" stroke-width="0.5" stroke-miterlimit="10" stroke-linejoin="round"/>
<path d="M258.117 290.405L229.719 273.758" stroke="white" stroke-width="0.5" stroke-miterlimit="10" stroke-linejoin="round"/>
<path d="M889.718 324.837V290.759L918.028 274.461L946.427 291.108V325.186L918.116 341.484L889.718 324.837Z" fill="#101F34" stroke="white" stroke-miterlimit="10" stroke-linejoin="round"/>
<path d="M918.116 341.486V307.408L946.427 291.109" stroke="white" stroke-width="0.5" stroke-miterlimit="10" stroke-linejoin="round"/>
<path d="M918.117 307.405L889.719 290.758" stroke="white" stroke-width="0.5" stroke-miterlimit="10" stroke-linejoin="round"/>
<path fill-rule="evenodd" clip-rule="evenodd" d="M898.051 314.178C898.051 313.735 897.936 313.324 897.708 312.944C897.48 312.564 897.069 312.057 896.475 311.422C895.882 310.787 895.412 310.234 895.066 309.762C894.122 308.473 893.65 307.238 893.65 306.055C893.65 305.441 893.777 304.972 894.03 304.648C894.283 304.325 894.646 304.176 895.12 304.202C895.594 304.228 896.125 304.425 896.715 304.795C897.309 305.166 897.837 305.645 898.302 306.23C898.766 306.815 899.126 307.456 899.383 308.153C899.64 308.85 899.768 309.54 899.768 310.222L898.056 309.15C898.056 308.629 897.936 308.149 897.697 307.71C897.457 307.271 897.12 306.916 896.687 306.644C896.268 306.382 895.943 306.299 895.711 306.396C895.479 306.493 895.362 306.739 895.362 307.135C895.362 307.505 895.499 307.9 895.771 308.32C896.043 308.741 896.443 309.226 896.972 309.776C897.946 310.787 898.655 311.729 899.101 312.601C899.546 313.474 899.768 314.353 899.768 315.238C899.768 316.222 899.496 316.824 898.952 317.043C898.408 317.263 897.676 317.084 896.755 316.507C896.116 316.107 895.534 315.582 895.009 314.933C894.484 314.284 894.083 313.594 893.807 312.864C893.531 312.134 893.394 311.402 893.394 310.668L895.111 311.744C895.111 312.999 895.659 313.969 896.755 314.656C897.162 314.911 897.48 314.996 897.708 314.913C897.936 314.829 898.051 314.584 898.051 314.178ZM903.529 316.031L902.639 316.786V320.036L900.927 318.963V307.588L902.639 308.661V313.817L903.392 312.875L905.51 310.458L907.616 311.777L904.665 314.984L907.701 323.206L905.664 321.93L903.529 316.031ZM911.211 319.154L912.94 315.111L914.812 316.284L912.084 321.825V325.95L910.343 324.86V320.735L907.616 311.777L909.493 312.953L911.211 319.154Z" fill="#0084FF"/>
<path d="M188.188 296L52.8057 217.922L53.1265 85.125L188.188 162.883V296Z" stroke="white" stroke-miterlimit="10" stroke-linejoin="round"/>
<path d="M159.889 252.125L75.9498 203.74L76.0832 172.773L159.889 221.024V252.125Z" stroke="#00C3FF" stroke-width="2" stroke-miterlimit="10" stroke-linejoin="round"/>
<path d="M159.889 205.477L75.9498 157.092L76.0832 126.124L159.889 174.376V205.477Z" stroke="#0072FF" stroke-width="2" stroke-miterlimit="10" stroke-linejoin="round"/>
<path d="M971.775 238.299C1008.36 238.299 1038.01 219.812 1038.01 197.007C1038.01 174.202 1008.36 155.715 971.775 155.715C935.194 155.715 905.539 174.202 905.539 197.007C905.539 219.812 935.194 238.299 971.775 238.299Z" stroke="white" stroke-miterlimit="10" stroke-linejoin="round"/>
<path d="M1049.85 274.002C1070.98 274.002 1088.11 263.322 1088.11 250.147C1088.11 236.973 1070.98 226.293 1049.85 226.293C1028.72 226.293 1011.58 236.973 1011.58 250.147C1011.58 263.322 1028.72 274.002 1049.85 274.002Z" stroke="white" stroke-miterlimit="10" stroke-linejoin="round"/>
<path d="M961.485 238.05L975.207 191.738L921.5 170.5" stroke="#0072FF" stroke-width="2"/>
<path d="M1004 161L975.548 192L944.5 159.5" stroke="#00C3FF" stroke-width="2"/>
<path d="M1024.5 267.5L1050 248.5L1086 257.5" stroke="#0072FF" stroke-width="2"/>
<path d="M188 221.305L219.911 202.69C238.643 191.763 261.813 191.795 280.516 202.772L290 208.339" stroke="#0072FF"/>
<path d="M580 308L599.066 319.298C626.919 335.804 661.49 336.077 689.601 320.014L710.625 308" stroke="#0085FF"/>
<path d="M1220.45 217.07L1049.89 317.001L838 194.974L1008.56 93.5625L1220.45 217.07Z" stroke="white" stroke-width="0.5" stroke-miterlimit="10" stroke-linejoin="round"/>
<path d="M1042.72 158.928V71.665L1066.45 58L1090.26 71.9573V159.22L1066.53 172.885L1042.72 158.928Z" fill="#101F34" stroke="#00C3FF" stroke-miterlimit="10" stroke-linejoin="round"/>
<path d="M1066.53 171.531V85.622L1090.27 71.957" stroke="#00C3FF" stroke-width="0.5" stroke-miterlimit="10" stroke-linejoin="round"/>
<path d="M1066.53 85.6214L1042.72 71.6641" stroke="#00C3FF" stroke-width="0.5" stroke-miterlimit="10" stroke-linejoin="round"/>
<path d="M1077.93 180.514V125.98L1101.67 112.109L1125.48 126.277V180.811L1101.74 194.682L1077.93 180.514Z" fill="#101F34" stroke="white" stroke-miterlimit="10" stroke-linejoin="round"/>
<path d="M1101.74 193.278V140.148L1125.48 126.277" stroke="white" stroke-width="0.5" stroke-miterlimit="10" stroke-linejoin="round"/>
<path d="M1101.74 140.148L1077.93 125.98" stroke="white" stroke-width="0.5" stroke-miterlimit="10" stroke-linejoin="round"/>
<path d="M1114.82 202.524V81.7236L1138.56 68.0586L1162.37 82.0159V202.816L1138.63 216.481L1114.82 202.524Z" fill="#101F34" stroke="#0072FF" stroke-miterlimit="10" stroke-linejoin="round"/>
<path d="M1138.63 216.127V95.6806L1162.37 82.0156" stroke="#0072FF" stroke-width="0.5" stroke-miterlimit="10" stroke-linejoin="round"/>
<path d="M1138.63 95.6799L1114.82 81.7227" stroke="#0072FF" stroke-width="0.5" stroke-miterlimit="10" stroke-linejoin="round"/>
<path d="M808 165.999L834.698 150.542C856.464 137.941 883.317 137.985 905.041 150.657L909 152.967" stroke="#0072FF"/>
<path d="M457 52.9989L483.698 37.5422C505.464 24.9408 532.317 24.9849 554.041 37.6575L558 39.9666" stroke="#0072FF"/>
<path d="M75 189L51.0489 175.228C41.1205 169.519 35 158.94 35 147.487V144.906C35 132.546 48.4165 124.854 59.0829 131.097L76 141" stroke="white"/>
<path d="M1050.5 248.5L1048.5 273.5" stroke="#0072FF"/>
<path d="M389.479 69L409 80.3091" stroke="white" stroke-width="0.5"/>
<path d="M450.479 104L470 115.309" stroke="white" stroke-width="0.5"/>
<path d="M579.704 311.972C581.634 311.972 583.199 310.412 583.199 308.486C583.199 306.561 581.634 305 579.704 305C577.774 305 576.209 306.561 576.209 308.486C576.209 310.412 577.774 311.972 579.704 311.972Z" fill="#0072FF"/>
<path d="M710.704 311.972C712.634 311.972 714.199 310.412 714.199 308.486C714.199 306.561 712.634 305 710.704 305C708.774 305 707.209 306.561 707.209 308.486C707.209 310.412 708.774 311.972 710.704 311.972Z" fill="#0072FF"/>
<path d="M807.704 169.972C809.634 169.972 811.199 168.412 811.199 166.486C811.199 164.561 809.634 163 807.704 163C805.774 163 804.209 164.561 804.209 166.486C804.209 168.412 805.774 169.972 807.704 169.972Z" fill="#0072FF"/>
<path d="M908.704 156.972C910.634 156.972 912.199 155.412 912.199 153.486C912.199 151.561 910.634 150 908.704 150C906.774 150 905.209 151.561 905.209 153.486C905.209 155.412 906.774 156.972 908.704 156.972Z" fill="#0072FF"/>
<path d="M289.704 211.972C291.634 211.972 293.199 210.412 293.199 208.486C293.199 206.561 291.634 205 289.704 205C287.774 205 286.209 206.561 286.209 208.486C286.209 210.412 287.774 211.972 289.704 211.972Z" fill="#0072FF"/>
<path d="M458.704 56.9725C460.634 56.9725 462.199 55.4116 462.199 53.4862C462.199 51.5608 460.634 50 458.704 50C456.774 50 455.209 51.5608 455.209 53.4862C455.209 55.4116 456.774 56.9725 458.704 56.9725Z" fill="#0072FF"/>
<path d="M557.704 42.9725C559.634 42.9725 561.199 41.4116 561.199 39.4862C561.199 37.5608 559.634 36 557.704 36C555.774 36 554.209 37.5608 554.209 39.4862C554.209 41.4116 555.774 42.9725 557.704 42.9725Z" fill="#0072FF"/>
<path d="M187.704 224.972C189.634 224.972 191.199 223.412 191.199 221.486C191.199 219.561 189.634 218 187.704 218C185.774 218 184.209 219.561 184.209 221.486C184.209 223.412 185.774 224.972 187.704 224.972Z" fill="#0072FF"/>
<path d="M74.6072 289.531L70.736 305.559L69.106 306.442L73.3168 288.919C73.7922 288.987 74.1997 289.191 74.6072 289.531ZM71.3472 289.327C71.8905 288.987 72.4339 288.852 72.9772 288.852L68.6985 306.646L68.4947 306.782C68.0193 307.053 67.476 307.189 67.0685 307.189L71.3472 289.327ZM78.1389 291.908C78.4784 292.044 78.818 292.315 79.0897 292.587L76.8484 302.163C76.7126 302.231 76.5768 302.367 76.5089 302.435L75.6259 302.91L78.1389 291.908ZM77.7314 301.28L79.633 293.402C79.8368 293.877 79.9726 294.421 79.9726 295.032C80.1763 297.273 79.2255 299.718 77.7314 301.28ZM75.6939 292.179L72.7735 304.404L71.2793 305.219L74.9468 289.938C75.3543 290.482 75.6259 291.229 75.6939 292.179ZM71.0755 289.463L66.7968 307.257C65.3706 307.189 64.2839 305.967 64.1481 303.929C63.9443 301.144 65.5743 297.884 67.7476 296.662C67.5439 293.945 69.0381 290.821 71.0755 289.463ZM77.5276 291.772L74.743 303.318L73.3847 304.065L76.3051 291.976C76.7805 291.772 77.1201 291.772 77.5276 291.772Z" fill="#0072FF"/>
<path d="M166.244 79.3916L161.145 91.2046L159.452 90.2394L164.974 77.2933C165.482 77.9018 165.884 78.6152 166.244 79.3916ZM162.986 75.4259C163.578 75.7616 164.128 76.2442 164.657 76.8527L159.029 90.0296L158.839 89.9247C158.331 89.631 157.802 89.1693 157.379 88.7077L162.986 75.4259ZM169.671 86.043C170.031 86.6095 170.306 87.197 170.581 87.8475L167.577 94.9185C167.45 94.8556 167.302 94.8136 167.175 94.7506L166.223 94.2051L169.671 86.043ZM168.571 95.1073L171.068 89.3162C171.216 89.9876 171.3 90.722 171.3 91.3515C171.3 93.8064 170.158 95.2332 168.571 95.1073ZM167.154 83.4202L163.282 92.4426L161.695 91.5403L166.561 80.2309C166.9 81.28 167.154 82.3711 167.154 83.4202ZM162.668 75.2371L157.04 88.351C155.623 86.6305 154.628 84.1126 154.628 81.8675C154.628 78.7831 156.49 77.3143 158.796 78.6362C158.796 75.6777 160.489 74.2089 162.668 75.2371ZM169.058 85.1407L165.398 93.6805L163.938 92.8412L167.788 83.9028C168.254 84.2175 168.656 84.6581 169.058 85.1407Z" fill="#0072FF"/>
<path d="M248.244 294.392L243.145 306.205L241.452 305.239L246.974 292.293C247.482 292.902 247.884 293.615 248.244 294.392ZM244.986 290.426C245.578 290.762 246.128 291.244 246.657 291.853L241.029 305.03L240.839 304.925C240.331 304.631 239.802 304.169 239.379 303.708L244.986 290.426ZM251.671 301.043C252.031 301.609 252.306 302.197 252.581 302.847L249.577 309.919C249.45 309.856 249.302 309.814 249.175 309.751L248.223 309.205L251.671 301.043ZM250.571 310.107L253.068 304.316C253.216 304.988 253.3 305.722 253.3 306.352C253.3 308.806 252.158 310.233 250.571 310.107ZM249.154 298.42L245.282 307.443L243.695 306.54L248.561 295.231C248.9 296.28 249.154 297.371 249.154 298.42ZM244.668 290.237L239.04 303.351C237.623 301.63 236.628 299.113 236.628 296.867C236.628 293.783 238.49 292.314 240.796 293.636C240.796 290.678 242.489 289.209 244.668 290.237ZM251.058 300.141L247.398 308.681L245.938 307.841L249.788 298.903C250.254 299.218 250.656 299.658 251.058 300.141Z" fill="#0072FF"/>
<path fill-rule="evenodd" clip-rule="evenodd" d="M814.537 41.0365C814.562 39.9133 813.882 39.7244 813.403 39.9923L813.165 40.1255C812.027 40.7616 811.272 41.676 811.322 43.1387C811.322 43.784 811.76 44.5548 812.366 44.6606L814.873 45.0985C816.103 45.3133 817.005 46.4288 817.005 47.7358V48.0226C817.005 50.0504 815.964 51.9214 814.28 52.9203L814.042 53.0617C812.159 54.1788 810.026 52.7384 810.101 50.3353L811.397 49.5256C811.372 51.6935 812.436 52.0932 813.256 51.6069L813.494 51.4655C814.678 50.7633 815.41 49.4481 815.41 48.0226V47.7358C815.41 47.246 814.674 46.7455 814.213 46.6649L812.104 46.3096C810.728 46.0692 809.702 44.5473 809.702 43.0865C809.702 41.1173 810.755 39.5776 812.414 38.6504L812.652 38.5173C814.194 37.6555 815.758 38.3819 815.758 40.2133L814.537 41.0365Z" fill="#0072FF"/>
<path d="M812.32 36.773L812.322 39.506L813.716 38.5298L813.715 35.7969L812.32 36.773Z" fill="#0072FF"/>
<path d="M812.968 53.2262L812.97 55.9591L814.364 54.9829L814.362 52.25L812.968 53.2262Z" fill="#0072FF"/>
<path fill-rule="evenodd" clip-rule="evenodd" d="M1185.3 310.918C1185.32 310.144 1184.85 310.014 1184.52 310.199L1184.35 310.29C1183.57 310.729 1183.05 311.359 1183.08 312.366C1183.08 312.811 1183.39 313.342 1183.8 313.415L1185.53 313.717C1186.38 313.865 1187 314.633 1187 315.534V315.731C1187 317.128 1186.28 318.418 1185.12 319.106L1184.96 319.203C1183.66 319.973 1182.19 318.98 1182.24 317.325L1183.14 316.767C1183.12 318.261 1183.85 318.536 1184.42 318.201L1184.58 318.103C1185.4 317.62 1185.9 316.713 1185.9 315.731V315.534C1185.9 315.196 1185.39 314.851 1185.08 314.796L1183.62 314.551C1182.68 314.385 1181.97 313.337 1181.97 312.33C1181.97 310.974 1182.69 309.913 1183.84 309.274L1184 309.182C1185.06 308.589 1186.14 309.089 1186.14 310.351L1185.3 310.918Z" fill="#0072FF"/>
<path d="M1183.77 307.981L1183.77 309.864L1184.73 309.192L1184.73 307.309L1183.77 307.981Z" fill="#0072FF"/>
<path d="M1184.22 319.317L1184.22 321.2L1185.18 320.527L1185.18 318.645L1184.22 319.317Z" fill="#0072FF"/>
<path d="M239.192 269L189 240" stroke="white" stroke-opacity="0.3"/>
<path d="M855 79.5333L816 57" stroke="white" stroke-opacity="0.3"/>
<path d="M961 122.467L910 93" stroke="white" stroke-opacity="0.3"/>
<path d="M838.154 272L807 254" stroke="white" stroke-opacity="0.3"/>
<path d="M1159.15 308L1110.69 280" stroke="white" stroke-opacity="0.3"/>
<path d="M84 292.999L133 264.688" stroke="white" stroke-opacity="0.3"/>
<path d="M204.229 78.8445L227 65.6875" stroke="white" stroke-opacity="0.3"/>
<path d="M287.787 293.845L335 266.566" stroke="white" stroke-opacity="0.3"/>
<path d="M806.788 133L873.308 94.5664" stroke="white" stroke-opacity="0.3"/>
<path d="M890 310.566L851.173 333L807 308" stroke="white" stroke-opacity="0.3"/>
<path d="M290 155.154L194 99.6875" stroke="white" stroke-opacity="0.3"/>
<path d="M747.479 110L768 121.888" stroke="white" stroke-width="0.5"/>
<path d="M747.479 127L768 138.888" stroke="white" stroke-width="0.5"/>
<path d="M747.479 118L778.549 136" stroke="white" stroke-width="0.5"/>
<path d="M341.479 22L361 33.3091" stroke="#00C3FF" stroke-width="0.5"/>
<path d="M341.479 42L361 53.3091" stroke="white" stroke-width="0.5"/>
<path d="M341.479 32L361 43.3091" stroke="white" stroke-width="0.5"/>
<path d="M341.479 52L361 63.3091" stroke="#00C3FF" stroke-width="0.5"/>
<path d="M120.938 170.047L111.25 164.459L111.273 161.376L120.938 166.941V170.047Z" fill="#0072FF"/>
<path d="M134.945 178.273L125.256 172.686L125.279 169.603L134.945 175.167V178.273Z" fill="#0072FF"/>
<path d="M152.201 188.5L142.512 182.912L142.535 179.829L152.201 185.394V188.5Z" fill="#0072FF"/>
<path d="M120.938 217.297L111.25 211.709L111.273 208.626L120.938 214.191V217.297Z" fill="#00C3FF"/>
<path d="M138.195 227.523L128.506 221.936L128.529 218.853L138.195 224.417V227.523Z" fill="#00C3FF"/>
<path d="M125.539 224.938L122.937 223.437L122.943 220.5L125.539 221.995V224.938Z" fill="#00C3FF"/>
<path d="M139.539 185.938L136.937 184.437L136.943 181.5L139.539 182.995V185.938Z" fill="#0072FF"/>
<path d="M93.6885 201.297L83.9997 195.709L84.0227 192.626L93.6885 198.191V201.297Z" fill="#00C3FF"/>
<path d="M107.695 209.523L98.0061 203.936L98.029 200.853L107.695 206.417V209.523Z" fill="#00C3FF"/>
<path d="M152.201 235.75L142.512 230.162L142.535 227.079L152.201 232.644V235.75Z" fill="#00C3FF"/>
</g>
</svg>
